name Walk4.mot
datacolumns 19
datarows 20
range 1.04500000 1.06400000
endheader

                time	   L_ground_force_vx	   L_ground_force_vy	   L_ground_force_vz	   L_ground_force_px	   L_ground_force_py	   L_ground_force_pz	   R_ground_force_vx	   R_ground_force_vy	   R_ground_force_vz	   R_ground_force_px	   R_ground_force_py	   R_ground_force_pz	   L_ground_torque_x	   L_ground_torque_y	   L_ground_torque_z	   R_ground_torque_x	   R_ground_torque_y	   R_ground_torque_z	
          1.04500000	        -11.74279122	        126.37541183	        -10.43189117	         -0.00195480	          0.00000000	         -0.00361820	          0.00000002	          0.00000013	          0.00000001	          0.00000000	          0.00000000	          0.00000000	          0.00000000	          0.31815980	          0.00000000	          0.00000000	         -0.00000001	          0.00000000	
          1.04600000	        -12.91730455	        136.00040585	        -11.09347847	         -0.01180783	          0.00000000	         -0.00307614	          0.00000002	          0.00000015	          0.00000002	          0.00000000	          0.00000000	          0.00000000	          0.00000000	          0.35492924	          0.00000000	          0.00000000	         -0.00000001	          0.00000000	
          1.04700000	        -14.12822221	        145.89103829	        -11.77004773	         -0.02163175	          0.00000000	         -0.00254130	          0.00000002	          0.00000018	          0.00000002	          0.00000000	          0.00000000	          0.00000000	          0.00000000	          0.39278455	          0.00000000	          0.00000000	         -0.00000001	          0.00000000	
          1.04800000	        -15.37433894	        156.03257485	        -12.46021147	         -0.03140233	          0.00000000	         -0.00201509	          0.00000002	          0.00000021	          0.00000002	          0.00000000	          0.00000000	          0.00000000	          0.00000000	          0.43168871	          0.00000000	          0.00000000	         -0.00000001	          0.00000000	
          1.04900000	        -16.65422875	        166.40800249	        -13.16239843	         -0.04109506	          0.00000000	         -0.00149883	          0.00000002	          0.00000024	          0.00000002	          0.00000000	          0.00000000	          0.00000000	          0.00000000	          0.47159857	          0.00000000	          0.00000000	         -0.00000001	          0.00000000	
          1.05000000	        -17.96622544	        176.99787127	        -13.87484282	         -0.05068489	          0.00000000	         -0.00099384	          0.00000002	          0.00000028	          0.00000003	          0.00000000	          0.00000000	          0.00000000	          0.00000000	          0.51246423	          0.00000000	          0.00000000	         -0.00000001	          0.00000000	
          1.05100000	        -19.30840758	        187.78014969	        -14.59557350	         -0.06014639	          0.00000000	         -0.00050139	          0.00000002	          0.00000031	          0.00000003	          0.00000000	          0.00000000	          0.00000000	          0.00000000	          0.55422865	          0.00000000	          0.00000000	         -0.00000001	          0.00000000	
          1.05200000	        -20.67860127	        198.73015046	        -15.32240383	         -0.06945447	          0.00000000	         -0.00002265	          0.00000002	          0.00000035	          0.00000003	          0.00000000	          0.00000000	          0.00000000	          0.00000000	          0.59682794	          0.00000000	          0.00000000	         -0.00000001	          0.00000000	
          1.05300000	        -22.07440768	        209.82059101	        -16.05292270	         -0.07858562	          0.00000000	          0.00044138	          0.00000002	          0.00000039	          0.00000004	          0.00000000	          0.00000000	          0.00000000	          0.00000000	          0.64019228	          0.00000000	          0.00000000	         -0.00000001	          0.00000000	
          1.05400000	        -23.49324763	        221.02181702	        -16.78448752	         -0.08751870	          0.00000000	          0.00088989	          0.00000002	          0.00000043	          0.00000004	          0.00000000	          0.00000000	          0.00000000	          0.00000000	          0.68424681	          0.00000000	          0.00000000	         -0.00000001	          0.00000000	
          1.05500000	        -24.93241883	        232.30220516	        -17.51422032	         -0.09623508	          0.00000000	          0.00132225	          0.00000002	          0.00000048	          0.00000004	          0.00000000	          0.00000000	          0.00000000	          0.00000000	          0.72891207	          0.00000000	          0.00000000	         -0.00000001	          0.00000000	
          1.05600000	        -26.38916834	        243.62875949	        -18.23900910	         -0.10471845	          0.00000000	          0.00173790	          0.00000002	          0.00000053	          0.00000005	          0.00000000	          0.00000000	          0.00000000	          0.00000000	          0.77410462	          0.00000000	          0.00000000	         -0.00000001	          0.00000000	
          1.05700000	        -27.86077767	        254.96787900	        -18.95551694	         -0.11295478	          0.00000000	          0.00213640	          0.00000002	          0.00000058	          0.00000005	          0.00000000	          0.00000000	          0.00000000	          0.00000000	          0.81973811	          0.00000000	          0.00000000	         -0.00000001	          0.00000000	
          1.05800000	        -29.34464942	        266.28622084	        -19.66020113	         -0.12093211	          0.00000000	          0.00251735	          0.00000002	          0.00000063	          0.00000005	          0.00000000	          0.00000000	          0.00000000	          0.00000000	          0.86572482	          0.00000000	          0.00000000	         -0.00000001	          0.00000000	
          1.05900000	        -30.83838231	        277.55154608	        -20.34934434	         -0.12864045	          0.00000000	          0.00288038	          0.00000001	          0.00000068	          0.00000006	          0.00000000	          0.00000000	          0.00000000	          0.00000000	          0.91197749	          0.00000000	          0.00000000	         -0.00000001	          0.00000000	
          1.06000000	        -32.33982385	        288.73342884	        -21.01909800	         -0.13607167	          0.00000000	          0.00322519	          0.00000001	          0.00000074	          0.00000006	          0.00000000	          0.00000000	          0.00000000	          0.00000000	          0.95841117	          0.00000000	          0.00000000	         -0.00000001	          0.00000000	
          1.06100000	        -33.84709598	        299.80374216	        -21.66553624	         -0.14321934	          0.00000000	          0.00355151	          0.00000001	          0.00000079	          0.00000007	          0.00000000	          0.00000000	          0.00000000	          0.00000000	          1.00494465	          0.00000000	          0.00000000	         -0.00000001	          0.00000000	
          1.06200000	        -35.35859464	        310.73689039	        -22.28471650	         -0.15007865	          0.00000000	          0.00385911	          0.00000001	          0.00000085	          0.00000007	          0.00000000	          0.00000000	          0.00000000	          0.00000000	          1.05150136	          0.00000000	          0.00000000	         -0.00000001	          0.00000000	
          1.06300000	        -36.87296841	        321.50981584	        -22.87274239	         -0.15664623	          0.00000000	          0.00414780	          0.00000000	          0.00000092	          0.00000008	          0.00000000	          0.00000000	          0.00000000	          0.00000000	          1.09800935	          0.00000000	          0.00000000	         -0.00000001	          0.00000000	
          1.06400000	        -38.38908264	        332.10184724	        -23.42582504	         -0.16292009	          0.00000000	          0.00441746	          0.00000000	          0.00000098	          0.00000008	          0.00000000	          0.00000000	          0.00000000	          0.00000000	          1.14440051	          0.00000000	          0.00000000	         -0.00000001	          0.00000000	
